<?xml version="1.0" encoding="utf-8"?>
<!-- Generator: Adobe Illustrator 19.1.0, SVG Export Plug-In . SVG Version: 6.00 Build 0)  -->
<svg version="1.1" id="Layer_1" xmlns="http://www.w3.org/2000/svg" xmlns:xlink="http://www.w3.org/1999/xlink" x="0px" y="0px"
	 viewBox="0 0 171 42" style="enable-background:new 0 0 171 42;" xml:space="preserve">
<style type="text/css">
	.st0{fill:#F5A61C;}
</style>
<g>
	<path class="st0" d="M0,40.2V15.3c0-0.5,0.4-0.9,0.9-0.9h5c0.5,0,0.9,0.4,0.9,0.9l0,0c0,0.5,0.5,0.8,0.9,0.5
		c1.9-1.3,4.1-1.9,6.3-1.9c3.4,0,6.5,1.5,8.5,3.7c0.2,0.2,0.6,0.3,0.9,0c2.1-2,5.3-3.8,9-3.8s7.2,1.7,9.4,4.3
		c1.7,2.1,2.7,4.8,2.7,8.8v13.2c0,0.5-0.4,0.9-1,0.9h-5.3c-0.5,0-1-0.4-1-0.9V26.6c0-2.4-0.5-3.7-1.3-4.6c-1.1-1.2-2.7-1.7-4-1.7
		c-2.9,0-5.3,1.9-6.3,3.3c-0.1,0.1-0.1,0.3-0.1,0.4c0.1,0.8,0.2,1.8,0.2,2.8v13.2c0,0.5-0.4,0.9-1,0.9h-5.3c-0.5,0-1-0.4-1-0.9V26.6
		c0-2.4-0.5-3.7-1.3-4.6c-1.1-1.2-2.7-1.7-4-1.7c-2.9,0-5,1.9-6.1,3.1c-0.1,0.1-0.1,0.2-0.1,0.4v16.2c0,0.5-0.4,0.9-0.9,0.9H0.9
		C0.4,41.1,0,40.7,0,40.2z"/>
	<path class="st0" d="M55.1,0.3c2.6,0,4.7,2,4.7,4.6c0,2.6-2.1,4.6-4.7,4.6s-4.7-2-4.7-4.6C50.5,2.3,52.6,0.3,55.1,0.3z M57.8,41.1
		h-5.3c-0.5,0-1-0.4-1-0.9V17.4c0-2,1.6-3.6,3.6-3.6l0,0c2,0,3.6,1.6,3.6,3.6v22.8C58.7,40.7,58.3,41.1,57.8,41.1z"/>
	<path class="st0" d="M77.9,21.3l4.5-6.5c0.2-0.2,0.5-0.4,0.8-0.4H89c0.8,0,1.2,0.9,0.8,1.5l-7.7,10.6c-0.1,0.2-0.1,0.5,0,0.7
		L91,39.6c0.4,0.6,0,1.5-0.8,1.5h-6.2c-0.3,0-0.6-0.1-0.8-0.4l-5.5-7.9c-0.2-0.3-0.7-0.3-0.9,0l-5.5,7.9c-0.2,0.2-0.5,0.4-0.8,0.4
		h-6.2c-0.8,0-1.2-0.9-0.8-1.5l8.9-12.4c0.1-0.2,0.1-0.5,0-0.7L65,15.8c-0.4-0.6,0-1.5,0.8-1.5h5.9c0.3,0,0.6,0.1,0.8,0.4l4.5,6.5
		C77.2,21.6,77.6,21.6,77.9,21.3z"/>
	<path class="st0" d="M99.8,41.6L99.8,41.6c-2,0-3.6-1.6-3.6-3.6V2.9c0-0.5,0.4-0.9,0.9-0.9h5.3c0.5,0,0.9,0.4,0.9,0.9v35.2
		C103.3,40,101.8,41.6,99.8,41.6z"/>
	<path class="st0" d="M144.1,41.1h5c0.5,0,0.9-0.4,0.9-0.9v0c0-0.5,0.5-0.8,0.9-0.5c2,1.4,4.2,2,6.5,2c4,0,7.7-1.8,10.1-4.5
		c2.1-2.4,3.4-5.7,3.4-9.4c0-7.8-5.8-13.9-13.1-13.9c-2.5,0-4.7,0.6-6.6,1.8c-0.4,0.3-0.9,0-0.9-0.5V2.9c0-0.5-0.4-0.9-0.9-0.9h-5.3
		c-0.5,0-0.9,0.4-0.9,0.9v37.3C143.2,40.7,143.6,41.1,144.1,41.1z M156.9,20.5c4,0,7.3,3.2,7.3,7.3c0,4-3.3,7.3-7.3,7.3
		c-4,0-7.3-3.3-7.3-7.3C149.7,23.7,153,20.5,156.9,20.5z"/>
	<path class="st0" d="M135.8,14.4h-5c-0.5,0-0.9,0.4-0.9,0.9v0c0,0.5-0.5,0.8-0.9,0.5c-2-1.3-4.3-2-6.9-2c-7.3,0-13.1,6-13.1,13.9
		c0,3.7,1.3,7,3.4,9.4c2.4,2.8,6.1,4.5,10.1,4.5c2.4,0,4.5-0.6,6.5-2c0.4-0.3,0.9,0,0.9,0.5v0.1c0,0.5,0.4,0.9,0.9,0.9h5
		c0.5,0,0.9-0.4,0.9-0.9V15.3C136.8,14.8,136.3,14.4,135.8,14.4z M122.9,35c-4,0-7.3-3.3-7.3-7.3c0-4.1,3.3-7.3,7.3-7.3
		c4,0,7.3,3.2,7.3,7.3C130.3,31.8,127,35,122.9,35z"/>
</g>
</svg>
